<?xml version="1.0" encoding="iso-8859-1"?>
<!-- Generator: Adobe Illustrator 16.0.0, SVG Export Plug-In . SVG Version: 6.00 Build 0)  -->
<!DOCTYPE svg PUBLIC "-//W3C//DTD SVG 1.1//EN" "http://www.w3.org/Graphics/SVG/1.1/DTD/svg11.dtd">
<svg version="1.1" id="Capa_1" xmlns="http://www.w3.org/2000/svg" xmlns:xlink="http://www.w3.org/1999/xlink" x="0px" y="0px"
	 width="718.936px" height="718.936px" viewBox="0 0 718.936 718.936" style="enable-background:new 0 0 718.936 718.936;"
	 xml:space="preserve">
<g>
	<g>
		<path d="M332.923,635.572c-9.248-43.567-30.15-86.744-44.839-128.813c-16.688-47.81-32.494-95.92-47.701-144.22
			c-29.087-92.35-52.325-185.908-75.617-279.766c14.935,0.209,33.175-2.834,35.683-18.986c2.543-16.37-11.01-32.058-22.184-42.241
			c-11.428-10.411-28.17-21.784-44.485-19.095c-13.808,2.271-17.905,14.235-18.45,26.689c-10.247-8.939-22.729-14.444-36.537-8.176
			c-15.161,6.895-22.22,26.68-24.418,41.887c-2.298,15.897-0.899,35.91,12.318,47.056c14.081,11.873,32.413,4.851,46.411-4.715
			c7.195,87.799,38.644,173.444,67.005,256.038c32.676,95.139,65.842,190.086,99.099,285.016
			c-13.69,3.089-27.552,9.438-32.503,23.392c-4.188,11.81,2.517,24.354,10.965,32.321c8.92,8.422,21.375,13.1,33.566,10.811
			c10.992-2.062,16.987-11.019,20.058-20.93c10.547,11.419,24.854,22.02,40.107,15.507c14.171-6.051,19.967-23.946,22.156-37.881
			c2.117-13.481,2.671-31.295-6.377-42.596C356.424,613.443,341.09,625.843,332.923,635.572z"/>
		<path d="M599.907,36.145c3.688-13.263,4.688-28.443-8.403-34.211c-14.843-6.541-33.057,4.887-44.275,13.79
			c-13.254,10.52-27.253,25.536-27.671,43.468c-0.399,17.105,15.479,23.328,30.132,25.172
			c-18.35,93.104-41.051,185.226-59.246,278.394c-16.17,82.793-41.07,167.676-36.991,252.84c-2.671-2.09-5.604-3.889-9.312-5.278
			c-5.913-2.226-12.499-2.171-18.449-0.182c-11.729,3.925-19.358,14.925-22.184,26.553c-2.407,9.884-1.354,22.765,7.276,29.47
			c4.887,3.797,10.383,4.923,15.951,4.46c-6.341,10.083-10.628,21.275-7.657,32.076c3.788,13.808,19.83,16.951,32.157,16.115
			c26.354-1.78,69.821-21.348,64.416-54.051c-1.808-10.965-12.545-26.962-24.137-28.915c24.183-94.875,43.531-191.03,62.881-286.978
			c15.906-78.887,23.319-161.498,45.366-239.041c19.05,24.909,61.936,14.807,65.442-22.62
			C668.91,47.781,632.328,25.58,599.907,36.145z"/>
	</g>
</g>
<g>
</g>
<g>
</g>
<g>
</g>
<g>
</g>
<g>
</g>
<g>
</g>
<g>
</g>
<g>
</g>
<g>
</g>
<g>
</g>
<g>
</g>
<g>
</g>
<g>
</g>
<g>
</g>
<g>
</g>
</svg>
